<svg xmlns="http://www.w3.org/2000/svg" width="128.000000pt" height="128.000000pt" viewBox="0 0 128.000000 128.000000" preserveAspectRatio="xMidYMid meet"><metadata>Created by potrace 1.16, written by Peter Selinger 2001-2019</metadata><g transform="translate(0.000000,128.000000) scale(0.100000,-0.100000)" fill="#000000" stroke="none"><path d="M152 960 c-18 -11 -41 -34 -52 -52 -18 -31 -20 -51 -20 -278 0 -227 2 -247 20 -278 11 -18 34 -41 52 -52 31 -19 51 -20 291 -20 247 0 257 1 257 19 0 19 -10 20 -243 23 -345 4 -332 -8 -332 308 0 330 -42 305 515 305 390 0 428 -1 453 -18 54 -35 62 -60 65 -204 4 -123 5 -133 23 -133 18 0 19 9 19 148 0 141 -1 149 -25 185 -47 69 -33 67 -537 67 -434 0 -454 -1 -486 -20z"></path><path d="M210 841 c-5 -11 -10 -43 -10 -71 0 -81 9 -90 90 -90 89 0 100 11 100 94 0 35 -5 67 -12 74 -7 7 -41 12 -85 12 -61 0 -74 -3 -83 -19z"></path><path d="M938 541 c-49 -16 -85 -43 -112 -85 -25 -37 -27 -49 -24 -112 3 -60 8 -77 32 -109 77 -100 236 -99 313 1 23 31 28 49 31 108 3 64 1 75 -24 113 -45 68 -144 107 -216 84z"></path></g></svg>