<svg xmlns="http://www.w3.org/2000/svg" width="64" height="64" viewBox="0 0 64 64" fill="none"><path d="M61 37.3202C60.9952 35.5546 60.3532 33.85 59.1921 32.5199C58.031 31.1898 56.4288 30.3234 54.68 30.0802V27.4802C54.5554 21.5488 52.1118 15.9024 47.8729 11.7517C43.6341 7.60096 37.9377 5.27637 32.005 5.27637C26.0724 5.27637 20.3759 7.60096 16.1371 11.7517C11.8983 15.9024 9.45458 21.5488 9.33001 27.4802V30.0802C7.5755 30.3157 5.96608 31.1799 4.80057 32.5124C3.63507 33.8448 2.99268 35.5549 2.99268 37.3252C2.99268 39.0954 3.63507 40.8055 4.80057 42.1379C5.96608 43.4704 7.5755 44.3346 9.33001 44.5702V44.9102C9.33001 51.2902 16.93 56.3202 26.8 56.6302C26.8762 57.3313 27.2078 57.9798 27.7316 58.452C28.2555 58.9241 28.9348 59.1869 29.64 59.1902H31.4C32.1621 59.1902 32.8931 58.8881 33.433 58.3502C33.9728 57.8122 34.2774 57.0822 34.28 56.3202V55.1902C34.2774 54.4281 33.9728 53.6981 33.433 53.1601C32.8931 52.6222 32.1621 52.3202 31.4 52.3202H29.63C28.9655 52.3217 28.322 52.5539 27.8096 52.977C27.2971 53.4001 26.9474 53.9879 26.82 54.6402C18.75 54.3602 12.22 50.6402 11.41 45.9102H13.46C14.3308 45.9102 15.1662 45.5649 15.7829 44.9501C16.3996 44.3352 16.7474 43.501 16.75 42.6302V32.0002C16.7474 31.1293 16.3996 30.2951 15.7829 29.6802C15.1662 29.0654 14.3308 28.7202 13.46 28.7202H11.33V27.4802C11.4489 22.0755 13.6793 16.9323 17.5437 13.152C21.4081 9.37171 26.5991 7.25488 32.005 7.25488C37.4109 7.25488 42.602 9.37171 46.4663 13.152C50.3307 16.9323 52.5611 22.0755 52.68 27.4802V28.7402H50.54C49.6736 28.7401 48.8423 29.083 48.2277 29.6938C47.6132 30.3046 47.2653 31.1337 47.26 32.0002V42.6302C47.26 43.5001 47.6056 44.3344 48.2207 44.9495C48.8358 45.5646 49.6701 45.9102 50.54 45.9102H53.68C53.9452 45.9102 54.1996 45.8048 54.3871 45.6173C54.5747 45.4297 54.68 45.1754 54.68 44.9102V44.5702C56.4305 44.3266 58.034 43.4589 59.1954 42.1267C60.3567 40.7944 60.9976 39.0875 61 37.3202V37.3202ZM28.76 55.1902C28.76 54.9594 28.8517 54.7381 29.0148 54.575C29.178 54.4118 29.3993 54.3202 29.63 54.3202H31.39C31.5051 54.3188 31.6193 54.3404 31.726 54.3835C31.8327 54.4266 31.9298 54.4905 32.0117 54.5714C32.0935 54.6523 32.1585 54.7487 32.2028 54.8549C32.2472 54.9611 32.27 55.0751 32.27 55.1902V56.3202C32.27 56.4353 32.2472 56.5492 32.2028 56.6554C32.1585 56.7616 32.0935 56.858 32.0117 56.9389C31.9298 57.0198 31.8327 57.0837 31.726 57.1268C31.6193 57.17 31.5051 57.1915 31.39 57.1902H29.63C29.3993 57.1902 29.178 57.0985 29.0148 56.9353C28.8517 56.7722 28.76 56.5509 28.76 56.3202V55.1902ZM5.00001 37.3202C5.00121 36.0836 5.43313 34.8861 6.22151 33.9335C7.0099 32.9808 8.1055 32.3326 9.32001 32.1002V42.5502C8.10382 42.3174 7.00691 41.6677 6.21833 40.713C5.42974 39.7583 4.99889 38.5584 5.00001 37.3202V37.3202ZM13.46 30.7402C13.7978 30.7375 14.1229 30.8684 14.3646 31.1044C14.6062 31.3405 14.7447 31.6624 14.75 32.0002V42.6302C14.75 42.7991 14.7166 42.9664 14.6516 43.1223C14.5867 43.2783 14.4915 43.4198 14.3716 43.5388C14.2517 43.6578 14.1094 43.7519 13.9529 43.8156C13.7965 43.8793 13.6289 43.9115 13.46 43.9102H11.32V30.7402H13.46ZM52.68 43.9102H50.54C50.2005 43.9102 49.875 43.7753 49.6349 43.5353C49.3949 43.2952 49.26 42.9696 49.26 42.6302V32.0002C49.26 31.6607 49.3949 31.3351 49.6349 31.0951C49.875 30.855 50.2005 30.7202 50.54 30.7202H52.68V43.9102ZM54.68 42.5502V32.1002C55.8952 32.3329 56.9913 32.982 57.7796 33.9356C58.5679 34.8893 58.9991 36.0879 58.9991 37.3252C58.9991 38.5624 58.5679 39.761 57.7796 40.7147C56.9913 41.6683 55.8952 42.3174 54.68 42.5502Z" fill="#607274" id="id_101"></path><path d="M28.2399 24.1505C27.9412 24.4839 27.6057 24.7824 27.2399 25.0405C26.809 25.3371 26.3951 25.6576 25.9999 26.0005C25.4499 26.5005 24.8399 27.1105 24.1699 27.8105C23.9772 28.0191 23.8216 28.2593 23.7099 28.5205C23.5987 28.7493 23.5309 28.9969 23.5099 29.2505C23.5076 29.3909 23.5348 29.5303 23.59 29.6595C23.6451 29.7888 23.7269 29.9049 23.8299 30.0005C23.9492 30.1108 24.0894 30.196 24.2423 30.251C24.3953 30.306 24.5577 30.3296 24.7199 30.3205H30.3499C30.486 30.3306 30.6228 30.3128 30.7518 30.2681C30.8808 30.2233 30.9993 30.1527 31.0999 30.0605C31.1819 29.9757 31.2462 29.8754 31.2892 29.7655C31.3321 29.6557 31.3527 29.5384 31.3499 29.4205C31.3559 29.2935 31.3308 29.167 31.2768 29.052C31.2227 28.937 31.1414 28.8369 31.0399 28.7605C30.7743 28.5751 30.4529 28.4868 30.1299 28.5105H26.1299C26.2418 28.3388 26.3654 28.1751 26.4999 28.0205C26.9807 27.4863 27.5096 26.9976 28.0799 26.5605C28.8499 25.9305 29.3999 25.4705 29.7199 25.1805C30.1123 24.826 30.4494 24.4148 30.7199 23.9604C31.0319 23.4413 31.1945 22.8461 31.1899 22.2405C31.1975 21.4355 30.8887 20.6599 30.3299 20.0805C30.0677 19.7929 29.7473 19.5645 29.3899 19.4105C28.7575 19.1451 28.0754 19.0189 27.3899 19.0405C26.8133 19.0294 26.2398 19.1278 25.6999 19.3305C25.2531 19.4964 24.8448 19.7516 24.4999 20.0805C24.2022 20.3637 23.9642 20.7038 23.7999 21.0805C23.6473 21.4274 23.5657 21.8014 23.5599 22.1805C23.5526 22.3064 23.571 22.4325 23.614 22.5512C23.6569 22.6698 23.7236 22.7784 23.8099 22.8705C23.8937 22.9539 23.9937 23.0191 24.1039 23.0621C24.214 23.1052 24.3318 23.125 24.4499 23.1205C24.5732 23.1288 24.6968 23.1088 24.8112 23.062C24.9256 23.0152 25.0278 22.9428 25.1099 22.8505C25.285 22.6105 25.4201 22.3437 25.5099 22.0605C25.579 21.8436 25.6659 21.6329 25.7699 21.4305C26.0172 21.0289 26.4085 20.7369 26.8639 20.6143C27.3193 20.4916 27.8043 20.5475 28.2199 20.7705C28.4839 20.9048 28.7028 21.1133 28.8499 21.3705C29.0117 21.6314 29.095 21.9334 29.0899 22.2405C29.0826 22.5592 29.0076 22.8728 28.8699 23.1605C28.7161 23.523 28.5032 23.8576 28.2399 24.1505V24.1505Z" fill="#63797d" id="id_102"></path><path d="M40.6498 26.4004C40.3465 26.286 40.0239 26.2317 39.6998 26.2404H39.3698V20.3204C39.3698 19.4404 38.9898 18.9904 38.2098 18.9904C38.0973 18.9881 37.9855 19.0081 37.8808 19.0493C37.7761 19.0905 37.6806 19.152 37.5998 19.2304C37.3567 19.4699 37.1357 19.731 36.9398 20.0104L32.9398 25.4304C32.8298 25.5804 32.7298 25.7004 32.6598 25.8104L32.4298 26.1204C32.3666 26.2218 32.313 26.329 32.2698 26.4404C32.2558 26.5366 32.2558 26.6343 32.2698 26.7304C32.2614 26.8975 32.2892 27.0645 32.3513 27.2198C32.4135 27.3752 32.5085 27.5152 32.6298 27.6304C32.9438 27.8627 33.3301 27.9761 33.7198 27.9504H37.5598V29.3804C37.5379 29.6893 37.6304 29.9954 37.8198 30.2404C37.9071 30.3391 38.0151 30.4172 38.1361 30.4691C38.2572 30.521 38.3882 30.5453 38.5198 30.5404C38.6491 30.5458 38.778 30.5226 38.8972 30.4724C39.0165 30.4223 39.1232 30.3465 39.2098 30.2504C39.4052 30.0047 39.4983 29.6931 39.4698 29.3804V28.0004H39.9398C40.2436 28.0256 40.5476 27.9557 40.8098 27.8004C40.9081 27.7268 40.9862 27.6295 41.0369 27.5176C41.0876 27.4057 41.1092 27.2829 41.0998 27.1604C41.1236 27.0013 41.0918 26.8389 41.0098 26.7005C40.9279 26.5621 40.8008 26.4561 40.6498 26.4004ZM37.4598 26.2404H34.1698L37.4598 21.8004V26.2404Z" fill="#607274" id="id_103"></path><path d="M35.5001 34.2801C35.349 34.2741 35.1985 34.3025 35.0599 34.3631C34.9213 34.4238 34.7983 34.515 34.7001 34.6301C34.4741 34.9122 34.3633 35.2695 34.3901 35.6301V38.8201H29.5201V35.6501C29.5421 35.2901 29.4318 34.9345 29.2101 34.6501C29.103 34.5388 28.9739 34.4511 28.831 34.3925C28.6881 34.334 28.5345 34.3059 28.3801 34.3101C28.2273 34.3026 28.0749 34.3302 27.9344 34.3909C27.794 34.4516 27.6694 34.5437 27.5701 34.6601C27.352 34.9459 27.2453 35.3014 27.2701 35.6601V44.4301C27.248 44.7885 27.3544 45.143 27.5701 45.4301C27.6763 45.5386 27.8031 45.6249 27.943 45.6838C28.083 45.7426 28.2333 45.773 28.3851 45.773C28.537 45.773 28.6873 45.7426 28.8272 45.6838C28.9672 45.6249 29.094 45.5386 29.2001 45.4301C29.4297 45.1494 29.5441 44.7919 29.5201 44.4301V40.6701H34.3901V44.4201C34.368 44.7785 34.4744 45.133 34.6901 45.4201C34.7894 45.5365 34.914 45.6286 35.0544 45.6892C35.1949 45.7499 35.3473 45.7776 35.5001 45.7701C35.6533 45.7767 35.8062 45.7497 35.9478 45.691C36.0895 45.6323 36.2166 45.5432 36.3201 45.4301C36.5497 45.1494 36.6641 44.7919 36.6401 44.4301V35.6501C36.6621 35.2901 36.5518 34.9345 36.3301 34.6501C36.2257 34.5333 36.0978 34.44 35.9547 34.3762C35.8117 34.3125 35.6567 34.2797 35.5001 34.2801V34.2801Z" fill="#607274" id="id_104"></path></svg>