<svg xmlns="http://www.w3.org/2000/svg" xmlns:xlink="http://www.w3.org/1999/xlink" xmlns:xodm="http://www.corel.com/coreldraw/odm/2003" xml:space="preserve" width="1.70666in" height="1.70666in" style="shape-rendering:geometricPrecision; text-rendering:geometricPrecision; image-rendering:optimizeQuality; fill-rule:evenodd; clip-rule:evenodd" viewBox="0 0 1706.66 1706.66"> <defs>  <style type="text/css">       .fil2 {fill:#000066}    .fil0 {fill:#DADADA}    .fil1 {fill:#FF6600}     </style> </defs> <g id="Layer_x0020_1">  <metadata id="CorelCorpID_0Corel-Layer"></metadata>  <path class="fil0" d="M1569.05 140.69l0 190.69 66.91 0 0 -190.69c0,-55.56 -45.14,-100.69 -100.69,-100.69 -0.05,0 -0.09,0 -0.14,0 -2.8,0 -5.57,0.12 -8.3,0.35 26.04,25.56 42.22,61.12 42.22,100.34z" id="id_114"></path>  <path class="fil0" d="M1335.05 38.08l0 1553.86c0,28.5 -10.46,54.64 -27.73,74.72l12.4 0c41.25,0 74.72,-33.47 74.72,-74.72l0 -1475.7 55.34 -83.37 -114.72 5.21z" id="id_115"></path>  <path class="fil1" d="M990.83 1318.46c-12.65,0 -22,-11.65 -19.72,-23.89l10.42 -54.86 -40.69 -38.19c-12.37,-11.54 -5.51,-32.33 11.25,-34.44l55.42 -6.94 23.75 -50.42c7.23,-15.21 29.01,-15.4 36.11,0l23.75 50.42 55.42 6.94c16.99,2.15 23.3,22.92 11.25,34.44l-40.69 38.19 10.42 54.86c3.22,16.52 -14.53,29.53 -29.31,21.39l-48.89 -26.94c-12.5,6.89 -49.07,29.44 -58.46,29.44zm58.47 -72.22c8.11,0 21.83,9.22 30.83,14.17 -7.44,-38.59 -9.69,-31.7 19.03,-58.61 -39.1,-4.97 -33.07,-0.55 -49.86,-36.39 -16.71,35.67 -10.77,31.42 -49.86,36.39 28.71,26.9 26.48,20.02 19.03,58.61 9.01,-4.95 22.72,-14.17 30.84,-14.17z" id="id_116" style="fill: rgb(250, 238, 209);"></path>  <g id="_3061012200704">   <path class="fil2" d="M1319.72 1706.66l-1148.19 0c-26.33,0 -26.33,-40 0,-40l1148.19 0c41.25,0 74.72,-33.47 74.72,-74.72l0 -1241.66c0,-26.33 40,-26.33 40,0l0 1241.66c0,63.33 -51.53,114.72 -114.72,114.72zm-1027.5 -328.47c-11.11,0 -20,-8.33 -20,-19.44l0 -1244.02c0,-63.19 51.39,-114.72 114.72,-114.72l1148.19 0c26.33,0 26.33,40 0,40l-1148.19 0c-41.25,0 -74.72,33.47 -74.72,74.72l0 1242.91c0,10.97 -8.89,20.56 -20,20.56z" id="id_117" style="fill: rgb(96, 114, 116);"></path>   <path class="fil2" d="M1655.83 371.39l-241.39 0c-10.97,0 -20,-8.89 -20,-20l0 -210.69c0,-77.64 63.19,-140.69 140.69,-140.69 77.5,0 140.69,63.19 140.69,140.69l0 210.69c0,11.11 -8.89,20 -20,20zm-221.39 -40l201.53 0 0 -190.69c0,-55.56 -45.14,-100.69 -100.69,-100.69 -55.56,0 -100.69,45.14 -100.69,100.69l-0 190.69 -0.14 0z" id="id_118" style="fill: rgb(96, 114, 116);"></path>  </g>  <path class="fil2" d="M171.53 1706.66c-77.64,0 -140.69,-63.19 -140.69,-140.69l0 -210.69c0,-10.97 8.89,-20 20,-20l241.39 0c11.11,0 20,9.03 20,20l0 210.69c0,77.5 -63.06,140.69 -140.69,140.69zm-100.7 -331.39l0 190.69c0,55.56 45.14,100.69 100.69,100.69 55.56,0 100.69,-45.14 100.69,-100.69l0 -190.69 -201.39 0z" id="id_119" style="fill: rgb(96, 114, 116);"></path>  <path class="fil1" d="M1191.94 399.86l-677.08 0c-26.36,0 -26.36,-40 0,-40l677.08 0c26.33,0 26.33,40 0,40z" id="id_120" style="fill: rgb(250, 238, 209);"></path>  <path class="fil1" d="M1191.94 636.52l-677.08 0c-26.36,0 -26.36,-40 0,-40l677.08 0c26.33,0 26.33,40 0,40z" id="id_121" style="fill: rgb(250, 238, 209);"></path>  <path class="fil1" d="M1191.94 873.33l-677.08 0c-26.3,0 -26.4,-40 0,-40l677.08 0c26.37,0 26.26,40 0,40z" id="id_122" style="fill: rgb(250, 238, 209);"></path>  <path class="fil1" d="M822.08 1110.13l-307.22 0c-26.33,0 -26.33,-40 0,-40l307.22 0c26.39,0 26.23,40 0,40z" id="id_123" style="fill: rgb(245, 232, 196);"></path>  <path class="fil1" d="M822.08 1346.8l-307.22 0c-26.33,0 -26.33,-40 0,-40l307.22 0c26.39,0 26.23,40 0,40z" id="id_124" style="fill: rgb(250, 238, 209);"></path>  <path class="fil2" d="M1049.3 1387.07c-98.47,0 -178.61,-80.14 -178.61,-178.61 0,-98.47 80.14,-178.61 178.61,-178.61 98.47,0 178.61,80.14 178.61,178.61 0,98.47 -80.14,178.61 -178.61,178.61zm0 -317.22c-76.39,0 -138.61,62.22 -138.61,138.61 0,76.39 62.22,138.61 138.61,138.61 76.39,0 138.61,-62.22 138.61,-138.61 0,-76.39 -62.22,-138.61 -138.61,-138.61z" id="id_125" style="fill: rgb(96, 114, 116);"></path>  <path class="fil2" d="M976.52 1570.27c-6.81,0 -13.06,-3.47 -16.81,-9.17l-36.11 -55.97 -64.44 16.53c-15.5,3.93 -29.72,-11.22 -23.61,-26.67l74.72 -190.97c5.39,-13.92 23.94,-17.39 33.75,-5.83 26.11,30.56 64.17,48.19 104.31,48.47 14.01,0.05 23.52,14.22 18.47,27.22l-71.67 183.33c-3.06,7.72 -11.56,13.06 -18.61,13.06zm-43.89 -107.92c16.24,0 25.94,23.25 39.59,44.3l47.78 -122.08c-30.56,-5.14 -59.31,-18.19 -83.33,-37.78l-49.44 126.53 45.41 -10.97z" id="id_126" style="fill: rgb(96, 114, 116);"></path>  <path class="fil2" d="M1122.07 1576.24c-8.2,0 -15.61,-5.2 -18.61,-12.78l-74.03 -189.17c-5.07,-13.18 4.52,-27.22 18.89,-27.22 40.69,0 78.47,-17.08 104.86,-46.94 10,-11.42 28.33,-7.52 33.61,5.97l76.25 195c6.03,15.23 -7.94,30.74 -23.61,26.67l-64.44 -16.53 -36.11 55.83c-3.75,5.69 -10,9.16 -16.81,9.16zm-45.41 -191.25l49.86 127.64c35.06,-54.08 22.76,-49.22 85.14,-33.19l-51.25 -130.97c-24.31,19.03 -53.2,31.67 -83.76,36.53z" id="id_127" style="fill: rgb(96, 114, 116);"></path> </g></svg>