<svg xmlns="http://www.w3.org/2000/svg" width="96.000000pt" height="96.000000pt" viewBox="0 0 96.000000 96.000000" preserveAspectRatio="xMidYMid meet"><metadata>Created by potrace 1.16, written by Peter Selinger 2001-2019</metadata><g transform="translate(0.000000,96.000000) scale(0.100000,-0.100000)" fill="#000000" stroke="none"><path d="M353 866 c-101 -33 -190 -113 -241 -216 -25 -50 -27 -65 -27 -170 0 -107 2 -119 29 -175 38 -77 114 -153 191 -191 56 -27 68 -29 175 -29 107 0 119 2 175 29 77 38 153 114 191 191 27 56 29 68 29 175 0 107 -2 119 -29 175 -38 77 -114 153 -191 190 -52 26 -72 30 -160 32 -64 2 -115 -2 -142 -11z m265 -105 c54 -28 115 -88 144 -143 19 -36 23 -58 23 -138 0 -109 -17 -152 -85 -220 -68 -68 -111 -85 -220 -85 -80 0 -102 4 -138 23 -55 30 -115 90 -143 144 -27 52 -36 164 -20 225 24 90 116 186 205 213 54 17 186 6 234 -19z"></path><path d="M355 565 c-49 -40 -91 -77 -93 -83 -2 -8 179 -162 193 -162 3 0 5 27 5 60 l0 60 120 0 120 0 0 40 0 40 -120 0 -120 0 0 60 c0 33 -3 60 -7 59 -5 0 -48 -33 -98 -74z"></path></g></svg>