<svg xmlns="http://www.w3.org/2000/svg" width="600.000000pt" height="140.000000pt" viewBox="0 0 600.000000 140.000000" preserveAspectRatio="xMidYMid meet"><metadata>Created by potrace 1.16, written by Peter Selinger 2001-2019</metadata><g transform="translate(0.000000,140.000000) scale(0.100000,-0.100000)" fill="#000000" stroke="none"><path d="M5932 1203 c-36 -25 -48 -39 -40 -45 10 -6 9 -8 -2 -8 -8 0 -32 -9 -52 -18 -28 -13 -35 -21 -27 -29 8 -8 1 -15 -24 -24 -20 -7 -34 -16 -31 -21 3 -4 2 -9 -3 -9 -32 -5 -55 -8 -101 -13 -29 -2 -59 -9 -66 -15 -7 -6 -21 -12 -32 -14 -10 -1 -23 -5 -29 -8 -5 -4 -27 -12 -49 -19 -40 -13 -89 -42 -143 -87 -40 -32 -36 -40 6 -18 18 9 36 13 42 10 5 -4 8 -1 7 6 -3 11 11 20 74 51 10 4 30 8 46 8 15 0 77 11 137 26 61 14 121 26 135 28 14 1 35 6 48 10 14 5 22 3 22 -4 0 -6 -4 -9 -8 -6 -4 2 -14 1 -21 -4 -9 -5 -2 -7 18 -6 17 0 31 4 31 9 0 4 4 6 9 3 5 -3 14 1 21 10 7 8 19 13 27 10 8 -3 11 -1 8 4 -11 18 5 31 25 20 13 -7 21 -5 31 8 12 15 12 15 -1 5 -9 -6 -21 -8 -28 -4 -9 5 -5 14 13 31 22 20 25 32 25 87 0 35 -3 63 -7 63 -5 0 -32 -17 -61 -37z"></path><path d="M500 661 c0 -137 3 -256 6 -265 6 -14 77 -16 706 -16 l699 0 33 -35 33 -35 201 0 c194 0 202 1 226 23 15 12 29 36 32 54 5 27 1 37 -24 63 l-30 30 -200 0 c-184 0 -201 -2 -225 -20 -13 -11 -28 -31 -31 -45 l-6 -25 -700 0 -700 0 0 255 0 255 543 3 542 2 -552 3 -553 2 0 -249z"></path></g></svg>