<svg xmlns="http://www.w3.org/2000/svg" width="600.000000pt" height="140.000000pt" viewBox="0 0 600.000000 140.000000" preserveAspectRatio="xMidYMid meet"><metadata>Created by potrace 1.16, written by Peter Selinger 2001-2019</metadata><g transform="translate(0.000000,140.000000) scale(0.100000,-0.100000)" fill="#000000" stroke="none"><path d="M0 700 l0 -700 1060 0 1060 0 0 60 c0 47 -3 60 -15 60 -12 0 -15 15 -15 79 0 54 4 81 13 84 7 3 4 6 -6 6 -10 1 -16 4 -14 9 10 15 -68 10 -88 -6 -19 -16 -19 -16 -6 0 8 11 9 18 3 18 -6 0 -13 -4 -16 -9 -9 -14 -53 -10 -53 5 0 10 5 10 20 3 29 -16 28 -7 -4 29 l-29 32 -705 0 c-665 0 -705 1 -705 18 0 9 0 129 0 265 1 200 -2 247 -12 241 -9 -6 -9 -3 1 9 12 16 50 17 459 15 346 -2 446 -6 450 -15 3 -10 -88 -13 -432 -13 l-436 0 0 -245 0 -245 695 0 c684 0 695 0 695 20 0 10 12 30 26 43 22 21 33 24 67 19 35 -4 39 -3 34 11 -4 10 -2 17 3 17 6 0 10 -7 10 -15 0 -8 7 -15 15 -15 22 0 18 16 -7 36 -17 12 -18 15 -5 10 15 -5 18 -1 15 17 -2 16 -9 21 -25 20 l-22 -3 21 36 c20 34 21 34 42 17 20 -18 20 -18 6 2 -8 11 -16 22 -17 24 -1 2 -9 -2 -18 -9 -10 -8 -15 -9 -15 -1 0 6 -7 11 -16 11 -14 0 -14 -1 0 -16 9 -8 16 -16 16 -18 0 -1 -26 -2 -57 -1 -41 0 -58 4 -60 15 -4 12 -3 12 5 1 6 -8 12 -9 16 -3 9 16 -6 21 -45 17 -38 -5 -50 1 -68 30 -10 18 -11 16 -6 -12 7 -36 -16 -56 -53 -46 -27 7 -32 63 -7 63 9 0 18 6 21 14 3 8 13 12 26 8 12 -3 19 -1 16 4 -3 5 0 15 8 22 12 11 14 7 14 -22 0 -19 4 -37 9 -40 4 -3 8 7 7 22 0 19 4 26 14 23 8 -2 21 -4 28 -5 8 -1 17 -8 21 -14 4 -6 16 -10 27 -8 14 3 20 -1 20 -14 0 -10 -4 -16 -8 -14 -4 3 -8 0 -8 -5 0 -6 7 -11 15 -11 11 0 15 11 15 39 0 29 6 42 23 54 12 8 19 18 14 23 -4 4 -12 3 -18 -3 -12 -12 -39 -7 -39 6 0 7 58 7 70 1 3 -1 8 -2 12 -1 4 0 5 -6 2 -14 -4 -8 -10 -13 -14 -10 -9 6 -23 -25 -15 -33 3 -3 5 0 5 7 0 8 8 11 20 8 12 -3 20 -1 19 6 -4 30 2 47 16 47 23 0 65 30 65 47 0 8 -4 12 -9 9 -4 -3 -13 6 -19 19 -7 14 -17 24 -23 23 -6 -2 -14 4 -16 12 -4 13 -3 13 7 0 10 -13 11 -13 8 0 -3 9 -21 16 -49 18 -46 4 -61 15 -51 40 4 12 1 14 -12 9 -10 -4 -22 -7 -27 -7 -5 0 -9 -5 -9 -10 0 -6 3 -9 8 -9 21 4 30 -3 34 -26 3 -13 2 -24 -1 -23 -3 1 -13 -1 -21 -5 -8 -3 -29 -7 -46 -9 -30 -4 -31 -3 -33 39 -2 49 6 56 20 15 9 -26 49 -43 49 -21 0 6 -4 8 -9 5 -5 -3 -13 0 -18 7 -16 20 -22 56 -11 64 7 3 8 1 4 -5 -4 -7 -2 -12 3 -12 6 0 11 4 11 9 0 5 7 12 16 15 8 3 12 2 9 -4 -3 -6 3 -10 14 -10 14 0 21 6 21 20 0 11 5 20 10 20 10 0 14 -18 10 -57 -1 -13 3 -23 9 -23 6 0 10 3 10 8 -1 4 -1 17 0 30 1 19 5 22 24 17 22 -7 22 -7 2 8 -20 16 -19 16 4 10 15 -4 22 -2 18 4 -3 5 0 10 8 10 8 0 15 -4 15 -9 0 -4 -4 -8 -8 -8 -5 0 -9 -7 -9 -15 0 -11 4 -12 13 -4 9 7 15 6 21 -5 5 -10 13 -12 22 -6 10 6 14 26 12 69 -2 51 1 61 15 61 10 0 14 5 11 14 -7 17 17 41 32 32 5 -3 7 3 4 14 -3 13 -14 20 -29 20 -13 0 -24 5 -24 10 0 6 5 10 10 10 6 0 10 6 9 13 -4 33 2 47 21 47 13 0 20 -7 20 -20 0 -26 30 -26 37 0 3 11 12 20 19 20 21 0 19 78 -2 82 -14 3 -13 6 5 22 21 19 21 19 21 -4 0 -13 3 -21 6 -18 3 3 2 22 -1 42 l-7 36 -1159 0 -1159 0 0 -700z m959 10 c9 0 22 5 28 11 9 9 11 8 10 -2 -2 -8 -5 -18 -8 -24 -3 -5 -5 -24 -5 -41 1 -18 -4 -31 -11 -31 -7 0 -10 4 -7 9 3 4 1 8 -5 8 -5 0 -13 -5 -16 -10 -9 -15 -25 -2 -19 15 5 12 1 12 -20 2 -17 -8 -21 -13 -11 -15 22 -5 18 -22 -5 -22 -11 0 -20 7 -20 15 0 18 -31 20 -48 3 -9 -9 -12 -9 -12 2 0 9 -6 6 -16 -8 -12 -17 -19 -20 -34 -12 -13 7 -20 6 -24 -3 -3 -6 -4 -3 -3 8 1 11 -4 20 -12 20 -8 0 -15 8 -17 17 -1 12 3 15 14 10 15 -5 15 -3 4 10 -9 11 -10 18 -2 23 18 11 31 -6 28 -38 -2 -23 1 -32 12 -32 8 0 16 8 18 19 3 13 0 16 -10 11 -7 -4 -5 1 5 11 15 16 19 17 27 4 8 -12 13 -11 31 9 l22 24 14 -27 c14 -27 39 -26 29 0 -3 8 1 14 11 14 9 0 13 3 10 7 -4 3 -1 13 5 21 8 9 14 10 16 3 2 -6 11 -11 21 -11z"></path><path d="M3459 682 c6 -12 10 -27 9 -34 -8 -33 316 -37 367 -4 14 9 25 25 25 35 0 16 -5 17 -62 9 -63 -10 -304 -3 -334 9 -14 5 -15 3 -5 -15z"></path><path d="M4071 322 c-14 -27 9 -55 61 -75 24 -9 105 -32 182 -52 189 -48 271 -48 458 -1 151 38 192 56 209 88 10 19 9 20 -7 13 -58 -25 -386 -104 -433 -105 -71 0 -418 103 -443 131 -16 19 -17 19 -27 1z"></path></g></svg>