<?xml version="1.0" encoding="UTF-8"?>
<svg xmlns="http://www.w3.org/2000/svg" xmlns:xlink="http://www.w3.org/1999/xlink" xmlns:svgjs="http://svgjs.dev/svgjs" version="1.1" width="2000" height="742" viewBox="0 0 2000 742">
  <g transform="matrix(1,0,0,1,-1.2121212121212466,1.0741898328527668)">
    <svg xmlns="http://www.w3.org/2000/svg" xmlns:xlink="http://www.w3.org/1999/xlink" viewBox="0 0 396 147" data-background-color="#ffffff" preserveAspectRatio="xMidYMid meet" height="742" width="2000">
      <g id="tight-bounds" transform="matrix(1,0,0,1,0.2400000000000091,-0.21281119330102172)">
        <svg viewBox="0 0 395.52 147.42562238660204" height="147.42562238660204" width="395.52">
          <g>
            <svg viewBox="0 0 538.3453079999999 200.66214626518752" height="147.42562238660204" width="395.52">
              <g>
                <svg viewBox="0 0 538.3453079999999 200.66214626518752" height="200.66214626518752" width="538.3453079999999">
                  <g id="textblocktransform">
                    <svg viewBox="0 0 538.3453079999999 200.66214626518752" height="200.66214626518752" width="538.3453079999999" id="textblock">
                      <g>
                        <svg viewBox="0 0 538.3453079999999 115.36340000000001" height="115.36340000000001" width="538.3453079999999">
                          <g>
                            <svg>
                              <g></g>
                              <g></g>
                            </svg>
                          </g>
                          <g>
                            <svg>
                              <g>
                                <svg></svg>
                              </g>
                              <g></g>
                            </svg>
                          </g>
                          <g id="text-0">
                            <svg viewBox="0 0 538.3453079999999 115.36340000000001" height="115.36340000000001" width="538.3453079999999">
                              <g transform="matrix(1,0,0,1,0,13.986974248528043)">
                                <svg width="395.52" viewBox="1.7 -35.3 161.34 35.65" height="87.38945150294393" data-palette-color="#607274">
                                  <path d="M1.7-34.85L25.3-34.85 25.3-31.15 15.8-31.15 15.8 0 11.25 0 11.25-31.15 1.7-31.15 1.7-34.85ZM30.8-34.85L35.35-34.85 35.35-12.8Q35.35-8.15 37.62-5.9 39.9-3.65 43.95-3.65L43.95-3.65Q47.95-3.65 50.22-5.9 52.5-8.15 52.5-12.8L52.5-12.8 52.5-34.85 57.05-34.85 57.05-12.85Q57.05-8.5 55.3-5.53 53.55-2.55 50.57-1.1 47.6 0.35 43.9 0.35L43.9 0.35Q40.2 0.35 37.22-1.1 34.25-2.55 32.52-5.53 30.8-8.5 30.8-12.85L30.8-12.85 30.8-34.85ZM75.7 0.35Q72.25 0.35 69.52-0.88 66.8-2.1 65.25-4.28 63.7-6.45 63.65-9.3L63.65-9.3 68.5-9.3Q68.75-6.85 70.52-5.18 72.3-3.5 75.7-3.5L75.7-3.5Q78.95-3.5 80.82-5.13 82.7-6.75 82.7-9.3L82.7-9.3Q82.7-11.3 81.59-12.55 80.5-13.8 78.84-14.45 77.2-15.1 74.4-15.85L74.4-15.85Q70.95-16.75 68.87-17.65 66.8-18.55 65.32-20.48 63.84-22.4 63.84-25.65L63.84-25.65Q63.84-28.5 65.3-30.7 66.75-32.9 69.37-34.1 72-35.3 75.4-35.3L75.4-35.3Q80.3-35.3 83.42-32.85 86.55-30.4 86.95-26.35L86.95-26.35 81.95-26.35Q81.7-28.35 79.84-29.88 78-31.4 74.95-31.4L74.95-31.4Q72.09-31.4 70.3-29.93 68.5-28.45 68.5-25.8L68.5-25.8Q68.5-23.9 69.57-22.7 70.65-21.5 72.22-20.88 73.8-20.25 76.65-19.45L76.65-19.45Q80.09-18.5 82.2-17.57 84.3-16.65 85.8-14.73 87.3-12.8 87.3-9.5L87.3-9.5Q87.3-6.95 85.95-4.7 84.59-2.45 81.95-1.05 79.3 0.35 75.7 0.35L75.7 0.35ZM105.04 0.35Q101.59 0.35 98.87-0.88 96.14-2.1 94.59-4.28 93.04-6.45 92.99-9.3L92.99-9.3 97.84-9.3Q98.09-6.85 99.87-5.18 101.64-3.5 105.04-3.5L105.04-3.5Q108.29-3.5 110.17-5.13 112.04-6.75 112.04-9.3L112.04-9.3Q112.04-11.3 110.94-12.55 109.84-13.8 108.19-14.45 106.54-15.1 103.74-15.85L103.74-15.85Q100.29-16.75 98.22-17.65 96.14-18.55 94.67-20.48 93.19-22.4 93.19-25.65L93.19-25.65Q93.19-28.5 94.64-30.7 96.09-32.9 98.72-34.1 101.34-35.3 104.74-35.3L104.74-35.3Q109.64-35.3 112.77-32.85 115.89-30.4 116.29-26.35L116.29-26.35 111.29-26.35Q111.04-28.35 109.19-29.88 107.34-31.4 104.29-31.4L104.29-31.4Q101.44-31.4 99.64-29.93 97.84-28.45 97.84-25.8L97.84-25.8Q97.84-23.9 98.92-22.7 99.99-21.5 101.57-20.88 103.14-20.25 105.99-19.45L105.99-19.45Q109.44-18.5 111.54-17.57 113.64-16.65 115.14-14.73 116.64-12.8 116.64-9.5L116.64-9.5Q116.64-6.95 115.29-4.7 113.94-2.45 111.29-1.05 108.64 0.35 105.04 0.35L105.04 0.35ZM123.34-34.85L127.89-34.85 127.89 0 123.34 0 123.34-34.85ZM163.04-34.9L163.04 0 158.49 0 140.19-27.75 140.19 0 135.64 0 135.64-34.9 140.19-34.9 158.49-7.2 158.49-34.9 163.04-34.9Z" opacity="1" transform="matrix(1,0,0,1,0,0)" fill="#607274" class="wordmark-text-0" data-fill-palette-color="primary"></path>
                                </svg>
                              </g>
                              <g>
                                <svg xmlns="http://www.w3.org/2000/svg" xmlns:xlink="http://www.w3.org/1999/xlink" version="1.1" x="409.13829999999996" y="0" viewBox="8 13 84 75" xml:space="preserve" height="115.36340000000001" width="129.207008" class="icon-cg-0" data-fill-palette-color="accent" id="cg-0">
                                  <path fill="#b2a59b" d="M83.394 13.946C83.166 13.375 82.614 13 82 13H19c-0.593 0-1.13 0.349-1.371 0.891l-9.5 21.365C8.044 35.448 8 35.655 8 35.865v1.093c0 5.334 3.901 9.954 9 11.251V74c0 7.458 6.542 14 14 14h4.5 28H70c7.168 0 13-6.28 13-14V48.337c5.201-1.088 9-5.695 9-11.379v-1.089c0-0.19-0.036-0.378-0.106-0.554L83.394 13.946zM88.54 35H72.304l-4.524-19h13.203L88.54 35zM49 16v19H31.78l4.524-19H49zM64.696 16l4.524 19H52V16H64.696zM48.967 37c-0.023 4.736-3.875 8.583-8.607 8.583-4.737 0-8.592-3.847-8.615-8.583H48.967zM69.123 37c-0.023 4.736-3.854 8.583-8.561 8.583-4.725 0-8.568-3.847-8.592-8.583H69.123zM19.975 16H33.22l-4.524 19h-17.17L19.975 16zM11.002 37H28.74c-0.024 4.657-4.075 8.583-8.869 8.583-0.233 0-0.463-0.017-0.692-0.035-0.059-0.003-0.129-0.007-0.201-0.011C14.584 45.087 11.025 41.364 11.002 37zM37 85V65.996C37 62.564 40.656 60 43.926 60h12.148C59.453 60 62 62.578 62 65.996V85H37zM80 74c0 6.065-4.486 11-10 11h-5V65.996C65 60.951 61.079 57 56.074 57H43.926C39.231 57 34 60.694 34 65.996V85h-3c-5.757 0-11-5.243-11-11V48.583c0.03 0 0.059-0.006 0.089-0.007 0.496-0.009 0.985-0.047 1.467-0.117 0.039-0.005 0.076-0.014 0.114-0.02 0.485-0.076 0.961-0.178 1.426-0.312 0.032-0.009 0.062-0.021 0.093-0.03 0.469-0.139 0.927-0.304 1.372-0.497 0.025-0.011 0.049-0.023 0.074-0.035 0.448-0.198 0.882-0.421 1.3-0.671 0.019-0.011 0.036-0.023 0.054-0.035 0.421-0.255 0.827-0.533 1.213-0.835 0.012-0.01 0.023-0.02 0.036-0.03 0.389-0.307 0.76-0.636 1.108-0.987 0.007-0.007 0.013-0.015 0.02-0.021 0.351-0.355 0.681-0.731 0.984-1.127 0.003-0.004 0.006-0.008 0.009-0.012 0.306-0.4 0.588-0.818 0.841-1.253 1.985 3.569 5.795 5.989 10.159 5.989 4.329 0 8.113-2.385 10.108-5.912 1.993 3.527 5.771 5.912 10.095 5.912 4.305 0 8.068-2.378 10.059-5.896 0.241 0.429 0.511 0.84 0.803 1.233 0.098 0.131 0.211 0.248 0.313 0.375 0.205 0.253 0.407 0.507 0.633 0.742 0.136 0.141 0.285 0.266 0.427 0.399 0.213 0.201 0.423 0.405 0.65 0.589 0.162 0.131 0.336 0.245 0.505 0.367 0.227 0.165 0.45 0.331 0.688 0.479 0.185 0.114 0.379 0.21 0.569 0.314 0.239 0.13 0.479 0.262 0.728 0.375 0.203 0.092 0.414 0.167 0.623 0.248 0.252 0.097 0.504 0.194 0.766 0.273 0.218 0.066 0.441 0.117 0.664 0.17 0.266 0.063 0.53 0.124 0.803 0.168 0.229 0.038 0.463 0.061 0.697 0.084 0.172 0.017 0.337 0.052 0.51 0.061V74zM81.584 45.525c-0.029-0.001-0.056-0.008-0.084-0.008-0.092 0-0.178 0.02-0.264 0.035-0.203 0.014-0.404 0.031-0.611 0.031-4.752 0-8.477-3.767-8.498-8.583h16.871C88.979 41.481 85.799 45.051 81.584 45.525z" data-fill-palette-color="accent"></path>
                                </svg>
                              </g>
                            </svg>
                          </g>
                        </svg>
                      </g>
                      <g transform="matrix(1,0,0,1,168.8920446579898,135.993952153009)">
                        <svg viewBox="0 0 200.56121868402033 64.66819411217851" height="64.66819411217851" width="200.56121868402033">
                          <g transform="matrix(1,0,0,1,0,0)">
                            <svg width="200.56121868402033" viewBox="2.65 -35.5 111.64 36" height="64.66819411217851" data-palette-color="#b2a59b">
                              <path d="M3.9-26.35L3.9-26.35Q3.9-31.2 6.35-33.35 8.8-35.5 14.3-35.5L14.3-35.5Q18.15-35.5 20.5-33.5 22.85-31.5 23.9-27.4L23.9-27.4 19.25-23.9 16.8-23.9 22.2-27.95Q21.15-31.3 19.18-32.65 17.2-34 14.3-34L14.3-34Q12.3-34 10.93-33.75 9.55-33.5 8.18-32.77 6.8-32.05 6.1-30.45 5.4-28.85 5.4-26.35L5.4-26.35Q5.4-24.15 7.43-22.45 9.45-20.75 12.35-19.55 15.25-18.35 18.18-17.1 21.1-15.85 23.13-13.9 25.15-11.95 25.15-9.4L25.15-9.4Q25.15-4.4 22.68-1.95 20.2 0.5 14.2 0.5L14.2 0.5Q9.3 0.5 6.5-1.48 3.7-3.45 2.65-7.6L2.65-7.6 4.05-8.2Q5.05-4.15 7.48-2.58 9.9-1 14.2-1L14.2-1Q19-1 21.33-2.85 23.65-4.7 23.65-9.4L23.65-9.4Q23.65-11.6 21.63-13.3 19.6-15 16.68-16.2 13.75-17.4 10.85-18.65 7.95-19.9 5.93-21.85 3.9-23.8 3.9-26.35ZM54-35L54 0 52.5 0 52.5-17.5 34.5-17.5 34.5 0 33 0 33-35 34.5-35 34.5-19 52.5-19 52.5-35 54-35ZM83.35-3.28Q80.6 0.5 74.45 0.5 68.3 0.5 65.55-3.28 62.8-7.05 62.8-15.05L62.8-15.05 62.8-19.95Q62.8-27.95 65.55-31.73 68.3-35.5 74.45-35.5 80.6-35.5 83.35-31.73 86.1-27.95 86.1-19.95L86.1-19.95 86.1-15.05Q86.1-7.05 83.35-3.28ZM78.65-33.38Q76.9-34 74.45-34 72-34 70.25-33.38 68.5-32.75 67.1-31.25 65.7-29.75 65-26.93 64.3-24.1 64.3-19.95L64.3-19.95 64.3-15.05Q64.3-10.9 65-8.08 65.7-5.25 67.1-3.75 68.5-2.25 70.25-1.63 72-1 74.45-1 76.9-1 78.65-1.63 80.4-2.25 81.8-3.75 83.2-5.25 83.9-8.08 84.6-10.9 84.6-15.05L84.6-15.05 84.6-19.95Q84.6-24.1 83.9-26.93 83.2-29.75 81.8-31.25 80.4-32.75 78.65-33.38ZM110.09-18.4L107.29-16.8 106.54-18.1 109.34-19.7Q112.79-21.6 112.79-25.75L112.79-25.75Q112.79-33.5 100.99-33.5L100.99-33.5 96.39-33.5 96.39 0 94.89 0 94.89-35 100.99-35Q107.59-35 110.94-32.58 114.29-30.15 114.29-25.75L114.29-25.75Q114.29-20.75 110.09-18.4L110.09-18.4Z" opacity="1" transform="matrix(1,0,0,1,0,0)" fill="#b2a59b" class="slogan-text-1" data-fill-palette-color="secondary" id="text-1"></path>
                            </svg>
                          </g>
                        </svg>
                      </g>
                    </svg>
                  </g>
                </svg>
              </g>
            </svg>
          </g>
          <defs></defs>
        </svg>
        <rect width="395.52" height="147.42562238660204" fill="none" stroke="none" visibility="hidden"></rect>
      </g>
    </svg>
  </g>
</svg>
